<svg xmlns="http://www.w3.org/2000/svg" xmlns:xlink="http://www.w3.org/1999/xlink" width="40" zoomAndPan="magnify" viewBox="0 0 30 30.000001" height="40" preserveAspectRatio="xMidYMid meet" version="1.0"><defs><clipPath id="53e468c4c5"><path d="M 0.484375 0 L 29.515625 0 L 29.515625 29.03125 L 0.484375 29.03125 Z M 0.484375 0 " clip-rule="nonzero"/></clipPath></defs><g clip-path="url(#53e468c4c5)"><path fill="#ffffff" d="M 20.894531 10.058594 C 20.628906 9.367188 20.148438 8.886719 19.457031 8.621094 C 19.003906 8.453125 18.539062 8.367188 18.054688 8.363281 C 17.257812 8.324219 17.019531 8.316406 15 8.316406 C 12.980469 8.316406 12.742188 8.324219 11.945312 8.363281 C 11.460938 8.367188 10.992188 8.453125 10.539062 8.621094 C 9.851562 8.886719 9.371094 9.367188 9.105469 10.058594 C 8.9375 10.511719 8.851562 10.980469 8.847656 11.460938 C 8.808594 12.257812 8.800781 12.496094 8.800781 14.515625 C 8.800781 16.535156 8.808594 16.773438 8.847656 17.570312 C 8.851562 18.054688 8.9375 18.523438 9.105469 18.976562 C 9.371094 19.664062 9.851562 20.144531 10.542969 20.410156 C 10.996094 20.578125 11.460938 20.664062 11.945312 20.671875 C 12.742188 20.707031 12.980469 20.714844 15 20.714844 C 17.019531 20.714844 17.257812 20.707031 18.054688 20.667969 C 18.539062 20.664062 19.007812 20.578125 19.460938 20.410156 C 20.148438 20.144531 20.628906 19.664062 20.894531 18.972656 C 21.0625 18.519531 21.148438 18.054688 21.152344 17.570312 C 21.191406 16.773438 21.199219 16.535156 21.199219 14.515625 C 21.199219 12.496094 21.191406 12.257812 21.152344 11.460938 C 21.148438 10.976562 21.0625 10.511719 20.894531 10.058594 Z M 15 18.398438 C 14.746094 18.398438 14.492188 18.375 14.242188 18.324219 C 13.992188 18.273438 13.75 18.203125 13.515625 18.105469 C 13.277344 18.007812 13.054688 17.886719 12.84375 17.746094 C 12.628906 17.601562 12.433594 17.441406 12.253906 17.261719 C 12.074219 17.082031 11.914062 16.886719 11.769531 16.671875 C 11.628906 16.460938 11.511719 16.238281 11.414062 16.003906 C 11.316406 15.765625 11.242188 15.523438 11.191406 15.273438 C 11.140625 15.023438 11.117188 14.769531 11.117188 14.515625 C 11.117188 14.261719 11.140625 14.007812 11.191406 13.757812 C 11.242188 13.507812 11.316406 13.265625 11.414062 13.03125 C 11.511719 12.792969 11.628906 12.570312 11.769531 12.359375 C 11.914062 12.148438 12.074219 11.949219 12.253906 11.769531 C 12.433594 11.589844 12.628906 11.429688 12.84375 11.289062 C 13.054688 11.144531 13.277344 11.027344 13.515625 10.929688 C 13.75 10.832031 13.992188 10.757812 14.242188 10.707031 C 14.492188 10.65625 14.746094 10.632812 15 10.632812 C 15.253906 10.632812 15.507812 10.65625 15.757812 10.707031 C 16.007812 10.757812 16.25 10.832031 16.484375 10.929688 C 16.722656 11.027344 16.945312 11.144531 17.15625 11.289062 C 17.371094 11.429688 17.566406 11.589844 17.746094 11.769531 C 17.925781 11.949219 18.085938 12.148438 18.230469 12.359375 C 18.371094 12.570312 18.488281 12.792969 18.585938 13.03125 C 18.683594 13.265625 18.757812 13.507812 18.808594 13.757812 C 18.859375 14.007812 18.882812 14.261719 18.882812 14.515625 C 18.882812 14.769531 18.859375 15.023438 18.808594 15.273438 C 18.757812 15.523438 18.683594 15.765625 18.585938 16.003906 C 18.488281 16.238281 18.371094 16.460938 18.230469 16.671875 C 18.085938 16.886719 17.925781 17.082031 17.746094 17.261719 C 17.566406 17.441406 17.371094 17.601562 17.15625 17.746094 C 16.945312 17.886719 16.722656 18.007812 16.484375 18.105469 C 16.25 18.203125 16.007812 18.273438 15.757812 18.324219 C 15.507812 18.375 15.253906 18.398438 15 18.398438 Z M 19.035156 11.386719 C 18.785156 11.386719 18.570312 11.300781 18.394531 11.121094 C 18.21875 10.945312 18.128906 10.730469 18.128906 10.480469 C 18.128906 10.230469 18.21875 10.015625 18.394531 9.839844 C 18.570312 9.660156 18.785156 9.574219 19.035156 9.574219 C 19.285156 9.574219 19.5 9.660156 19.675781 9.839844 C 19.855469 10.015625 19.941406 10.230469 19.941406 10.480469 C 19.941406 10.730469 19.855469 10.945312 19.675781 11.121094 C 19.5 11.300781 19.285156 11.386719 19.035156 11.386719 Z M 17.519531 14.515625 C 17.519531 14.851562 17.457031 15.171875 17.328125 15.480469 C 17.199219 15.789062 17.019531 16.0625 16.78125 16.296875 C 16.546875 16.535156 16.273438 16.71875 15.964844 16.84375 C 15.65625 16.972656 15.335938 17.035156 15 17.035156 C 14.664062 17.035156 14.34375 16.972656 14.035156 16.84375 C 13.726562 16.71875 13.453125 16.535156 13.21875 16.296875 C 12.980469 16.0625 12.800781 15.789062 12.671875 15.480469 C 12.542969 15.171875 12.480469 14.851562 12.480469 14.515625 C 12.480469 14.183594 12.542969 13.859375 12.671875 13.550781 C 12.800781 13.242188 12.980469 12.96875 13.21875 12.734375 C 13.453125 12.496094 13.726562 12.316406 14.035156 12.1875 C 14.34375 12.058594 14.664062 11.996094 15 11.996094 C 15.335938 11.996094 15.65625 12.058594 15.964844 12.1875 C 16.273438 12.316406 16.546875 12.496094 16.78125 12.734375 C 17.019531 12.96875 17.199219 13.242188 17.328125 13.550781 C 17.457031 13.859375 17.519531 14.183594 17.519531 14.515625 Z M 15 0 C 14.046875 0 13.101562 0.09375 12.167969 0.277344 C 11.234375 0.464844 10.324219 0.738281 9.445312 1.105469 C 8.5625 1.46875 7.726562 1.917969 6.933594 2.445312 C 6.144531 2.976562 5.410156 3.578125 4.734375 4.25 C 4.0625 4.925781 3.460938 5.660156 2.929688 6.453125 C 2.402344 7.242188 1.953125 8.082031 1.589844 8.960938 C 1.222656 9.839844 0.949219 10.75 0.761719 11.683594 C 0.578125 12.617188 0.484375 13.5625 0.484375 14.515625 C 0.484375 15.46875 0.578125 16.414062 0.761719 17.347656 C 0.949219 18.28125 1.222656 19.191406 1.589844 20.070312 C 1.953125 20.953125 2.402344 21.789062 2.929688 22.582031 C 3.460938 23.375 4.0625 24.105469 4.734375 24.78125 C 5.410156 25.453125 6.144531 26.054688 6.933594 26.585938 C 7.726562 27.117188 8.5625 27.5625 9.445312 27.925781 C 10.324219 28.292969 11.234375 28.566406 12.167969 28.753906 C 13.101562 28.9375 14.046875 29.03125 15 29.03125 C 15.953125 29.03125 16.898438 28.9375 17.832031 28.753906 C 18.765625 28.566406 19.675781 28.292969 20.554688 27.925781 C 21.4375 27.5625 22.273438 27.117188 23.066406 26.585938 C 23.855469 26.054688 24.589844 25.453125 25.265625 24.78125 C 25.9375 24.105469 26.539062 23.375 27.070312 22.582031 C 27.597656 21.789062 28.046875 20.953125 28.410156 20.070312 C 28.777344 19.191406 29.050781 18.28125 29.238281 17.347656 C 29.421875 16.414062 29.515625 15.46875 29.515625 14.515625 C 29.515625 13.5625 29.421875 12.617188 29.238281 11.683594 C 29.050781 10.75 28.777344 9.839844 28.410156 8.960938 C 28.046875 8.082031 27.597656 7.242188 27.070312 6.453125 C 26.539062 5.660156 25.9375 4.925781 25.265625 4.25 C 24.589844 3.578125 23.855469 2.976562 23.066406 2.445312 C 22.273438 1.917969 21.4375 1.46875 20.554688 1.105469 C 19.675781 0.738281 18.765625 0.464844 17.832031 0.277344 C 16.898438 0.09375 15.953125 0 15 0 Z M 22.515625 17.632812 C 22.503906 18.265625 22.386719 18.875 22.164062 19.46875 C 21.964844 19.976562 21.675781 20.421875 21.289062 20.808594 C 20.90625 21.191406 20.460938 21.484375 19.953125 21.679688 C 19.359375 21.902344 18.75 22.019531 18.117188 22.03125 C 17.308594 22.066406 17.054688 22.078125 15 22.078125 C 12.945312 22.078125 12.691406 22.066406 11.882812 22.03125 C 11.25 22.019531 10.640625 21.902344 10.046875 21.679688 C 9.539062 21.484375 9.09375 21.191406 8.710938 20.808594 C 8.324219 20.421875 8.035156 19.976562 7.835938 19.46875 C 7.617188 18.875 7.496094 18.265625 7.484375 17.632812 C 7.449219 16.828125 7.441406 16.570312 7.441406 14.515625 C 7.441406 12.460938 7.449219 12.207031 7.484375 11.398438 C 7.496094 10.765625 7.613281 10.15625 7.835938 9.5625 C 8.03125 9.054688 8.324219 8.609375 8.707031 8.222656 C 9.09375 7.839844 9.539062 7.546875 10.046875 7.351562 C 10.640625 7.128906 11.25 7.011719 11.882812 7 C 12.691406 6.964844 12.945312 6.957031 15 6.957031 C 17.054688 6.957031 17.308594 6.964844 18.117188 7 C 18.75 7.011719 19.359375 7.128906 19.953125 7.351562 C 20.460938 7.546875 20.90625 7.839844 21.292969 8.222656 C 21.675781 8.609375 21.964844 9.054688 22.164062 9.5625 C 22.382812 10.15625 22.503906 10.765625 22.515625 11.398438 C 22.550781 12.207031 22.558594 12.460938 22.558594 14.515625 C 22.558594 16.570312 22.550781 16.828125 22.515625 17.632812 Z M 22.515625 17.632812 " fill-opacity="1" fill-rule="nonzero"/></g></svg>