<svg width="50" height="50" viewBox="0 0 50 50" fill="none" xmlns="http://www.w3.org/2000/svg">
  <rect width="50" height="50" rx="10" fill="#2563EB" fill-opacity="0.2"/>
  <rect x="2" y="2" width="46" height="46" rx="8" stroke="white" stroke-opacity="0.1" stroke-width="1"/>
  <path d="M16.5 34V16H25.5C27.1667 16 28.5833 16.3333 29.75 17C30.9167 17.6667 31.8333 18.5833 32.5 19.75C33.1667 20.9167 33.5 22.25 33.5 23.75C33.5 25.25 33.1667 26.5833 32.5 27.75C31.8333 28.9167 30.9167 29.8333 29.75 30.5C28.5833 31.1667 27.1667 31.5 25.5 31.5H20.5V34H16.5ZM20.5 27.5H25C26.1667 27.5 27.0833 27.1667 27.75 26.5C28.4167 25.8333 28.75 24.9167 28.75 23.75C28.75 22.5833 28.4167 21.6667 27.75 21C27.0833 20.3333 26.1667 20 25 20H20.5V27.5Z" fill="#60A5FA"/>
</svg>
